PathFileType	4	(X/Y/Z)	55_2_90_p0_0-277.trc
DataRate	CameraRate	NumFrames	NumMarkers	Units	OrigDataRate	OrigDataStartFrame	OrigNumFrames
52.0	52.0	7	27	m	52.0	208	278
Frame#	Time	RHip			RKnee			RAnkle			RBigToe			RSmallToe			RHeel			LHip			LKnee			LAnkle			LBigToe			LSmallToe			LHeel			Neck			Head			Nose			RShoulder			RElbow			RWrist			RThumb			RIndex			RPinky			LShoulder			LElbow			LWrist			LThumb			LIndex			LPinky			
		X1	Y1	Z1	X2	Y2	Z2	X3	Y3	Z3	X4	Y4	Z4	X5	Y5	Z5	X6	Y6	Z6	X7	Y7	Z7	X8	Y8	Z8	X9	Y9	Z9	X10	Y10	Z10	X11	Y11	Z11	X12	Y12	Z12	X13	Y13	Z13	X14	Y14	Z14	X15	Y15	Z15	X16	Y16	Z16	X17	Y17	Z17	X18	Y18	Z18	X19	Y19	Z19	X20	Y20	Z20	X21	Y21	Z21	X22	Y22	Z22	X23	Y23	Z23	X24	Y24	Z24	X25	Y25	Z25	X26	Y26	Z26	X27	Y27	Z27	
208	4.0	0.275015749154836	0.5136481834968638	0.7663408741595571	0.2807116060658948	0.521940242283056	1.1720831008862644	0.31123807488168226	0.6144781890692982	1.634706102741581	0.2907190455919696	0.40661269597244387	1.624262301934261	0.34946275532473503	0.42903252190243124	1.6386139077436752	0.30395731677501525	0.6816731549285165	1.7005290038034573	0.08306905790457182	0.5816897478275302	0.7967330373014501	0.10606061297800226	0.6063604988657633	1.2029822865069104	0.1336724471070323	0.6109615600159566	1.6078502651713809	0.12126476315421657	0.40705632245750917	1.6155775080376886	0.07100499331570624	0.46661837682429963	1.6455238947541124	0.16136439395557703	0.6735618250042551	1.692737321934069	0.1152832392822705	0.6086614130125172	0.21974677071894036	0.05502699566613343	0.562581883411107	-0.03833410966329167	0.04985562997246623	0.5197162393935618	0.0876505102442223	0.26516860433717054	0.5522614600637024	0.28586699481774397	0.31163209616022736	0.4578403813501957	0.5357493563892262	0.2160633470116497	0.3320209916754145	0.6929804923646031	0.11816666681587333	0.3025107263146576	0.7743999716704661	0.12521428933725653	0.33020730975980117	0.8224817324145878	0.17331597397761528	0.3718161941658045	0.8635085114498621	-0.014193599336107348	0.6302209562156879	0.3299865454223438	-0.01146553549286626	0.5897264720509432	0.5758688756591448	0.09783805929432389	0.39484011090949483	0.7174270779628353	0.15046385098259737	0.32300942038241576	0.7720119242572647	0.15339982458968157	0.3135155484807507	0.8047892833275225	0.1393147765407051	0.3154122428506705	0.8219336396657719
209	4.019230769230769	0.27397303718828697	0.5132851880813148	0.7754122215132611	0.27963918117674347	0.520732051355754	1.1673582743043736	0.31107244507917886	0.6140029469168611	1.6343393745858936	0.2878658996732185	0.42206412723229647	1.6346597530106157	0.354208906267956	0.44125770985559515	1.6467043069737453	0.30328109398750236	0.6799226968118887	1.6987753407156834	0.08171409798933693	0.5815642147253471	0.8059860493490459	0.10600989476608744	0.6061665611831804	1.2029206211378354	0.133738903879852	0.6110258310712186	1.6079621686891947	0.12117627919665545	0.4068489349069087	1.6155312223318798	0.07102221125132421	0.46662491541384615	1.6456048906203118	0.16136190576062978	0.6735172037547861	1.6927694865130223	0.1194695064338735	0.5950167435890451	0.21752220054531926	0.059142472696929266	0.5629623149850915	-0.03885159278967603	0.05788346125057366	0.5089731428793278	0.08601113504135116	0.2736544899616191	0.5646450131077762	0.28803962165238334	0.3182440579140833	0.4547303346388478	0.5352018202784299	0.19958956706051398	0.35507877724700715	0.6978727417837566	0.09830952959525754	0.37454059285000074	0.7994174792342841	0.10628901358397394	0.3990542505815607	0.8463529478969221	0.1797207746952528	0.3686322543463688	0.8663185840954041	-0.014278878294951442	0.6293659067681859	0.3259442930219496	-0.011227260405075509	0.5897597694460892	0.5756435832904129	0.10225067061848508	0.3945505460754627	0.7175281260436585	0.15748486534038175	0.33640583902427823	0.786115263410131	0.16139708354228977	0.32519649232488246	0.8312638410649518	0.12859509395965715	0.33809758607857116	0.8127962057551089
210	4.038461538461538	0.2705129092147907	0.5121120235950458	0.7705738199924093	0.27969412071767213	0.5207463304662154	1.1673620770862676	0.31124849295457035	0.6144605216836315	1.6346834388281186	0.2877868467263226	0.4220443398731163	1.6346397012040599	0.3490432980878147	0.4381624046509297	1.6445652813113225	0.30381251912116897	0.6810844315366686	1.6998666901076087	0.07910278635447095	0.5696772894703361	0.7932617279331907	0.10593832406095968	0.606399979426118	1.2031069730173767	0.13379890894334767	0.6111739262517731	1.6081015445474613	0.12011665490093565	0.4074278327979061	1.619663497384923	0.07092754573482543	0.4666503295876685	1.6457059301381882	0.16140050796862915	0.673452069131389	1.6927729676704264	0.1311673857833381	0.5704000837690579	0.21001172753030609	0.06326180381938645	0.5514506249519794	-0.042793705629039655	0.06548844456185167	0.4844717719465575	0.08252752418395577	0.28082930002072837	0.5534013715796591	0.2857491972517326	0.31226645656633806	0.4586645697018203	0.5395693974726684	0.19813566563506496	0.368139245225389	0.7105508301788491	0.10412443040067539	0.39879274821037825	0.8167595876664732	0.11592864850621368	0.41209209289035437	0.8554690749280213	0.18228892979557382	0.369446523196192	0.8700553913463249	-0.014013929329735277	0.629298651104087	0.32575414516225815	-0.009741281404987907	0.5649500033742468	0.5648845289652343	0.10691605803966996	0.3838172562418658	0.7100847242497743	0.16368284322298451	0.3287807796792178	0.7965606069261087	0.16232932945555328	0.33839854366348554	0.8411098337864853	0.12067916054022032	0.37847052296655975	0.8309229504804952
211	4.0576923076923075	0.2706088955098209	0.5116469181160086	0.770326486203021	0.27970531352606903	0.5205235666906534	1.167252872866569	0.3112429285716963	0.6145239236209963	1.6346293625545596	0.2868075154371572	0.42109352525791566	1.6300233868298046	0.3501491002822393	0.4311981255133489	1.6394783262113428	0.30333041857012544	0.680372688850043	1.6989781544048297	0.07880573720298006	0.5704122451431934	0.7889529389537333	0.10577473143975284	0.6063121300755663	1.2028748282075017	0.13344004058638342	0.6124353480468376	1.6046014699290072	0.12028506180417584	0.40716081249755504	1.6195961005671196	0.07101755757787034	0.4665872346674506	1.6457080074818586	0.1613199137920524	0.6733141696483949	1.693006069631779	0.13485415396906686	0.5821176002406686	0.20806816693491825	0.07812328609562394	0.5646559216043069	-0.04529552245222987	0.0755725371231937	0.4705618075654716	0.07351535976239398	0.281029531287036	0.553338162062647	0.2856869251282617	0.31452495341173836	0.44529867030309017	0.535729556351579	0.19834249015087105	0.3916291216122539	0.715329841825085	0.11355700761332697	0.4000904355509276	0.8400947530911151	0.1508010945012622	0.4388846307046504	0.8920963657421098	0.19173834712435	0.3840353810344659	0.8758685664302389	-0.00954022751808018	0.617027767190522	0.31965447433490907	-0.009970329322515452	0.5638356714106475	0.5605509197818843	0.1073247548823408	0.38344877369408237	0.721677787517829	0.16613460017084458	0.33879491401792633	0.799504879782906	0.18084684903086604	0.3603391618371434	0.8615250388357266	0.1248899705732543	0.39063890273946317	0.8456034428324706
212	4.076923076923077	0.2708986149729757	0.5131863227212025	0.7627372084890319	0.2830125537619808	0.5069228638859716	1.1594003287116095	0.3121732883985094	0.6144896291257497	1.6295174349280717	0.287864820053995	0.42201596617026577	1.6347414349673286	0.3539636787164825	0.44019503334409027	1.646103907913501	0.30423548398299566	0.6794748987759947	1.7032602164083266	0.07563619255224319	0.5587327441116164	0.7805975939407196	0.10237220733758208	0.5938818349685231	1.1921915139917685	0.13470331346313547	0.610993557903492	1.6025840812819996	0.11745913941737937	0.4204568861553948	1.624802825463801	0.07202302625578223	0.4663163281984053	1.641255262439366	0.16129096942167243	0.6716634537799717	1.6815988759052847	0.14251705251948932	0.5703381681431866	0.20579494237604545	0.09342373902258312	0.5534514120571062	-0.04672368372673113	0.07978706293016706	0.4709861697112921	0.07018856710067192	0.2929339325362299	0.5519409684591811	0.2885453866131097	0.31189468431277195	0.4582293645578216	0.5395423155824105	0.1990851358440423	0.3923935439215269	0.719187565249328	0.16358871412195986	0.34825411574870485	0.8520249127844409	0.1820464480007319	0.38579956069576926	0.8804757125420744	0.19510934606468458	0.3860935380203276	0.8744275214587198	-0.005002471894256163	0.6188071845784436	0.3160574441694165	-0.005768247505270708	0.5503442847638966	0.5568807870358411	0.10714071940872966	0.38357928935109653	0.7215781427882212	0.1878169782226255	0.3593483583974766	0.8071940028761644	0.1896349129149706	0.38176289069405384	0.870430277985151	0.1396216390328102	0.3637634744557497	0.8537973421595232
213	4.096153846153846	0.27500335568417694	0.514110411698181	0.7630949503490193	0.2789298994701695	0.5200366271180967	1.1606283567348314	0.31095315767011933	0.6130746010454783	1.6240416528930421	0.2867688793324793	0.42094493322464577	1.6299969776868517	0.3542063066251168	0.44092814454257107	1.6463598497236631	0.30400282137178725	0.679555989485344	1.7033166885256905	0.07946086126526822	0.545069294464093	0.7745871859498437	0.10223690256030114	0.5937145555946562	1.1916972874475882	0.13466453546011276	0.6109849592317765	1.6025068345421216	0.12134175342027329	0.4068154114009246	1.6153658508827096	0.07094746604953066	0.46647951940918764	1.6455745361238567	0.1602149424881121	0.6719827806227744	1.6876166633878238	0.14640356622822834	0.556925286171126	0.2067787743957732	0.1163238208057547	0.543378880355962	-0.0481161029771543	0.08810642345488509	0.4611939547539376	0.07282832144558597	0.30042225822212665	0.5393673489035807	0.2861085015669335	0.31914757534115096	0.4472412618167487	0.5403323144065855	0.21060797208404816	0.3821050939467623	0.7234593168219992	0.1778475088942551	0.37388476812530974	0.8716394718097487	0.19179738214872485	0.4106682649647424	0.8955302715925444	0.19972006766953754	0.3970806256060908	0.8835426095638217	-0.004790532096520049	0.6188645977010814	0.31209035555700193	0.002247928991131315	0.5241433622580164	0.5483987934863409	0.10793272735583798	0.3846950129918756	0.726822523200497	0.19471057143575246	0.3711550624027696	0.8232662475870394	0.19896258902666009	0.39544604178918696	0.880377443435929	0.14312319963455086	0.36255689728649465	0.8621627693847994
214	4.115384615384615	0.275577819510645	0.514751298111742	0.7587928774676866	0.2797655624828644	0.5199721038984448	1.1562565522171857	0.31210596788020645	0.6143546157646183	1.6292752622551567	0.286844298012065	0.4211256361806135	1.6300773420162937	0.35441627339994747	0.44120070074970297	1.6463522486745055	0.303599229749408	0.6789246744027008	1.7027198508968064	0.0789321849351828	0.5439486380120442	0.7699211284145397	0.10218391886434201	0.5937010209957438	1.1916802301159866	0.13326894490182103	0.6123631003911987	1.604313188022512	0.12039330736188346	0.4067010624772934	1.6192593589877777	0.07097673896230186	0.4662474876955999	1.645384931541146	0.1601235502403382	0.6719024315062628	1.6880331470587746	0.14667626995984412	0.5564861471151927	0.20648186090653547	0.12749484741585707	0.5439344205199672	-0.04831867038486909	0.09156660449150603	0.44913266990576056	0.06835540567355122	0.3078547706965228	0.5362104159847544	0.28529449466493434	0.3227735340042603	0.4564710745460876	0.5397379758284411	0.21534289124471176	0.38445648669690635	0.7285178311270654	0.1670374063363364	0.3259187287299252	0.8518124063610109	0.19497644004942968	0.3853309398254969	0.8860586875325666	0.19778103620448384	0.39924034514133183	0.8811661127600233	-0.0002127899926713996	0.6063053221724689	0.305757342995758	0.0062269714755985184	0.5508512297705785	0.5560249122945295	0.1115361173395759	0.4064405593760085	0.7378840540315789	0.1978472584031255	0.3620039059458201	0.8241287499741337	0.1980966324680273	0.3605311249273918	0.8696296663607843	0.14912888224713447	0.34944030188567177	0.8624123511030248
